<?xml version="1.0" encoding="UTF-8" standalone="no"?>
<svg
   xmlns:dc="http://purl.org/dc/elements/1.1/"
   xmlns:cc="http://creativecommons.org/ns#"
   xmlns:rdf="http://www.w3.org/1999/02/22-rdf-syntax-ns#"
   xmlns:svg="http://www.w3.org/2000/svg"
   xmlns="http://www.w3.org/2000/svg"
   xmlns:sodipodi="http://sodipodi.sourceforge.net/DTD/sodipodi-0.dtd"
   xmlns:inkscape="http://www.inkscape.org/namespaces/inkscape"
   viewBox="0 0 265.69021 265.69021"
   version="1.1"
   id="svg6"
   sodipodi:docname="cover.svg"
   inkscape:version="0.92.4 (unknown)"
   width="265.69022"
   height="265.69022">
  <metadata
     id="metadata12">
    <rdf:RDF>
      <cc:Work
         rdf:about="">
        <dc:format>image/svg+xml</dc:format>
        <dc:type
           rdf:resource="http://purl.org/dc/dcmitype/StillImage" />
        <dc:title></dc:title>
      </cc:Work>
    </rdf:RDF>
  </metadata>
  <defs
     id="defs10" />
  <sodipodi:namedview
     pagecolor="#ffffff"
     bordercolor="#666666"
     borderopacity="1"
     objecttolerance="10"
     gridtolerance="10"
     guidetolerance="10"
     inkscape:pageopacity="0"
     inkscape:pageshadow="2"
     inkscape:window-width="1920"
     inkscape:window-height="1017"
     id="namedview8"
     showgrid="false"
     inkscape:zoom="1.4984127"
     inkscape:cx="-6.5609243"
     inkscape:cy="175.26319"
     inkscape:window-x="0"
     inkscape:window-y="30"
     inkscape:window-maximized="1"
     inkscape:current-layer="svg6"
     fit-margin-top="0"
     fit-margin-left="0"
     fit-margin-right="0"
     fit-margin-bottom="0" />
  <path
     style="fill:#f7df1e;stroke-width:0.42173049"
     d="M 0,0 H 265.6902 V 265.6902 H 0 Z"
     id="rect2"
     inkscape:connector-curvature="0" />
  <g
     aria-label="Ninja"
     style="font-style:normal;font-weight:normal;font-size:133.1778717px;line-height:1.25;font-family:sans-serif;letter-spacing:0px;word-spacing:0px;fill:#000000;fill-opacity:1;stroke:none;stroke-width:3.32944679"
     id="text852"
     transform="scale(0.6976522)">
    <path
       d="m 136.90702,233.34451 v 97.02008 h -11.71966 q -2.59697,0 -4.39487,-0.79906 -1.73131,-0.86566 -3.46262,-2.92992 L 71.583269,268.76983 q 0.266356,2.59697 0.332945,5.06076 0.133178,2.3972 0.133178,4.52804 v 52.00596 H 52.205889 v -97.02008 h 11.85283 q 1.464957,0 2.463791,0.13318 0.998834,0.13318 1.797901,0.53271 0.799067,0.33295 1.531546,0.99884 0.732478,0.66589 1.664723,1.7979 l 46.14613,58.26532 q -0.33294,-2.79674 -0.46612,-5.39371 -0.13318,-2.66355 -0.13318,-4.99417 v -51.34007 z"
       style="font-style:normal;font-variant:normal;font-weight:900;font-stretch:normal;font-family:Lato;-inkscape-font-specification:'Lato Heavy';stroke-width:3.32944679"
       id="path863"
       inkscape:connector-curvature="0" />
    <path
       d="m 173.40191,261.31187 v 69.05272 h -20.64257 v -69.05272 z m 2.13085,-18.91126 q 0,2.46379 -0.99883,4.66122 -0.99884,2.13085 -2.73015,3.79557 -1.73131,1.59814 -4.06192,2.59697 -2.26403,0.93225 -4.861,0.93225 -2.53038,0 -4.72781,-0.93225 -2.19744,-0.99883 -3.92875,-2.59697 -1.66472,-1.66472 -2.66356,-3.79557 -0.93224,-2.19743 -0.93224,-4.66122 0,-2.53038 0.93224,-4.72782 0.99884,-2.19743 2.66356,-3.86215 1.73131,-1.66473 3.92875,-2.59697 2.19743,-0.93225 4.72781,-0.93225 2.59697,0 4.861,0.93225 2.33061,0.93224 4.06192,2.59697 1.73131,1.66472 2.73015,3.86215 0.99883,2.19744 0.99883,4.72782 z"
       style="font-style:normal;font-variant:normal;font-weight:900;font-stretch:normal;font-family:Lato;-inkscape-font-specification:'Lato Heavy';stroke-width:3.32944679"
       id="path865"
       inkscape:connector-curvature="0" />
    <path
       d="m 206.97315,268.76983 q 1.99767,-1.86449 4.12851,-3.46263 2.13085,-1.59813 4.52805,-2.66355 2.46379,-1.13202 5.26053,-1.73132 2.86332,-0.66589 6.19277,-0.66589 5.66006,0 9.98834,1.99767 4.39487,1.93108 7.39137,5.46029 2.9965,3.46263 4.52805,8.32362 1.53154,4.79441 1.53154,10.45446 v 43.88211 h -20.64257 v -43.88211 q 0,-5.06075 -2.33061,-7.85749 -2.33061,-2.86332 -6.85866,-2.86332 -3.39604,0 -6.39254,1.46495 -2.92991,1.39837 -5.72665,3.86216 v 49.27581 h -20.64257 v -69.05272 h 12.78508 q 3.86216,0 5.06076,3.46262 z"
       style="font-style:normal;font-variant:normal;font-weight:900;font-stretch:normal;font-family:Lato;-inkscape-font-specification:'Lato Heavy';stroke-width:3.32944679"
       id="path867"
       inkscape:connector-curvature="0" />
    <path
       d="m 284.99041,261.31187 v 69.1859 q 0,4.86099 -1.26519,9.12269 -1.1986,4.32828 -4.06193,7.52455 -2.79673,3.26285 -7.45796,5.12734 -4.59463,1.86449 -11.45329,1.86449 -2.53038,0 -4.66123,-0.33294 -2.19743,-0.26636 -4.52805,-0.86566 l 0.66589,-10.85399 q 0.13318,-1.39837 0.93225,-2.06426 0.79906,-0.66589 3.19627,-0.66589 2.3972,0 3.92874,-0.39953 1.53155,-0.39954 2.3972,-1.39837 0.93225,-0.99884 1.26519,-2.73015 0.39954,-1.66472 0.39954,-4.32828 v -69.1859 z m 2.13084,-18.91126 q 0,2.46379 -0.99883,4.66122 -0.99883,2.13085 -2.73015,3.79557 -1.73131,1.59814 -4.06192,2.59697 -2.26403,0.93225 -4.86099,0.93225 -2.53038,0 -4.72782,-0.93225 -2.19743,-0.99883 -3.92875,-2.59697 -1.66472,-1.66472 -2.66355,-3.79557 -0.93225,-2.19743 -0.93225,-4.66122 0,-2.53038 0.93225,-4.72782 0.99883,-2.19743 2.66355,-3.86215 1.73132,-1.66473 3.92875,-2.59697 2.19744,-0.93225 4.72782,-0.93225 2.59696,0 4.86099,0.93225 2.33061,0.93224 4.06192,2.59697 1.73132,1.66472 2.73015,3.86215 0.99883,2.19744 0.99883,4.72782 z"
       style="font-style:normal;font-variant:normal;font-weight:900;font-stretch:normal;font-family:Lato;-inkscape-font-specification:'Lato Heavy';stroke-width:3.32944679"
       id="path869"
       inkscape:connector-curvature="0" />
    <path
       d="m 335.14228,302.26406 q -6.19277,0.26636 -10.18811,1.06543 -3.99533,0.79906 -6.32595,1.99766 -2.33061,1.1986 -3.26285,2.73015 -0.86566,1.53155 -0.86566,3.32945 0,3.52921 1.93108,4.99417 1.93108,1.39836 5.66006,1.39836 3.99533,0 6.99184,-1.39836 2.9965,-1.39837 6.05959,-4.52805 z m -37.15663,-31.36339 q 6.25936,-5.52688 13.8505,-8.19044 7.65773,-2.73014 16.38088,-2.73014 6.25936,0 11.25353,2.06426 5.06076,1.99766 8.52338,5.66005 3.52922,3.59581 5.39371,8.58998 1.86449,4.99417 1.86449,10.92058 v 43.14963 h -9.45563 q -2.92991,0 -4.46146,-0.79906 -1.46496,-0.79907 -2.46379,-3.32945 l -1.46496,-3.79557 q -2.59697,2.19744 -4.99417,3.86216 -2.3972,1.66472 -4.99417,2.86332 -2.53038,1.13201 -5.46029,1.66473 -2.86332,0.5993 -6.39254,0.5993 -4.72781,0 -8.58997,-1.1986 -3.86216,-1.26519 -6.59231,-3.6624 -2.66355,-2.3972 -4.12851,-5.92641 -1.46496,-3.5958 -1.46496,-8.25703 0,-3.72898 1.86449,-7.52455 1.86449,-3.86216 6.45913,-6.99184 4.59464,-3.19627 12.38554,-5.32711 7.79091,-2.13085 19.64374,-2.3972 v -2.92992 q 0,-6.05959 -2.53038,-8.72315 -2.46379,-2.73014 -7.05843,-2.73014 -3.66239,0 -5.993,0.79906 -2.33061,0.79907 -4.1951,1.7979 -1.79791,0.99884 -3.52922,1.79791 -1.73131,0.79906 -4.12851,0.79906 -2.13085,0 -3.59581,-1.06542 -1.46495,-1.06542 -2.3972,-2.53038 z"
       style="font-style:normal;font-variant:normal;font-weight:900;font-stretch:normal;font-family:Lato;-inkscape-font-specification:'Lato Heavy';stroke-width:3.32944679"
       id="path871"
       inkscape:connector-curvature="0" />
  </g>
  <g
     aria-label="JS"
     style="font-style:normal;font-weight:normal;font-size:201.63404846px;line-height:1.25;font-family:sans-serif;letter-spacing:0px;word-spacing:0px;fill:#000000;fill-opacity:1;stroke:none;stroke-width:5.04085112"
     id="text860"
     transform="matrix(0.53760706,0,0,0.53760706,56.856375,28.598087)">
    <path
       d="m 236.58105,132.18298 q 0,12.29968 -3.12533,22.38138 -3.02451,10.0817 -9.27517,17.34053 -6.14984,7.15801 -15.52582,11.19069 -9.37598,3.93186 -22.07893,3.93186 -5.74657,0 -11.39232,-0.6049 -5.54494,-0.6049 -11.59396,-2.01634 l 1.81471,-19.86096 q 0.30245,-2.62124 2.11716,-4.23431 1.8147,-1.61307 5.14166,-1.61307 1.71389,0 4.23432,0.6049 2.52042,0.50408 6.04902,0.50408 4.94003,0 8.56945,-1.31062 3.73023,-1.41144 6.14984,-4.53676 2.4196,-3.22615 3.62941,-8.36782 1.2098,-5.14167 1.2098,-12.70294 V 38.523963 h 34.07616 z"
       style="font-style:normal;font-variant:normal;font-weight:900;font-stretch:normal;font-family:Lato;-inkscape-font-specification:'Lato Heavy';stroke-width:5.04085112"
       id="path874"
       inkscape:connector-curvature="0" />
    <path
       d="m 344.76717,68.365803 q -1.51226,2.419608 -3.22615,3.629412 -1.61307,1.209805 -4.23431,1.209805 -2.31879,0 -5.04085,-1.411439 -2.62124,-1.512255 -6.04902,-3.326961 -3.32697,-1.814707 -7.6621,-3.226145 -4.33513,-1.512256 -9.88007,-1.512256 -9.57761,0 -14.31601,4.133498 -4.63759,4.032681 -4.63759,10.989056 0,4.435949 2.82288,7.359643 2.82288,2.923694 7.35964,5.040851 4.63759,2.117158 10.48497,3.931864 5.94821,1.713889 12.09805,3.931864 6.14984,2.117155 11.99722,5.040855 5.94821,2.92369 10.48497,7.46046 4.63759,4.53676 7.46046,11.08987 2.82288,6.45229 2.82288,15.62664 0,10.18252 -3.5286,19.05441 -3.52859,8.8719 -10.28333,15.52583 -6.65393,6.5531 -16.53399,10.38415 -9.77926,3.73023 -22.28057,3.73023 -6.85555,0 -14.01356,-1.41144 -7.0572,-1.41144 -13.71112,-3.93186 -6.65392,-2.62124 -12.50131,-6.14984 -5.84739,-3.5286 -10.18252,-7.86373 l 10.0817,-15.92909 q 1.20981,-1.71389 3.12533,-2.82288 2.01634,-1.2098 4.33513,-1.2098 3.02451,0 6.04902,1.91552 3.12533,1.91553 6.95638,4.23432 3.93186,2.31879 8.97271,4.23431 5.04086,1.91553 11.89641,1.91553 9.27517,0 14.41684,-4.03268 5.14167,-4.1335 5.14167,-13.0054 0,-5.14167 -2.82288,-8.36781 -2.82288,-3.22615 -7.46046,-5.3433 -4.53677,-2.11716 -10.38415,-3.73023 -5.84739,-1.61308 -11.99723,-3.5286 -6.14984,-2.01634 -11.99723,-4.83922 -5.84738,-2.92369 -10.48497,-7.56127 -4.53676,-4.7384 -7.35964,-11.694779 -2.82288,-7.057192 -2.82288,-17.340529 0,-8.266996 3.32697,-16.130723 3.32696,-7.863728 9.77925,-14.013567 6.45229,-6.149838 15.82827,-9.779251 9.37598,-3.73023 21.47403,-3.73023 6.75474,0 13.10621,1.108987 6.45229,1.00817 12.19886,3.125328 5.74657,2.01634 10.6866,4.940034 5.04086,2.822877 8.97272,6.45229 z"
       style="font-style:normal;font-variant:normal;font-weight:900;font-stretch:normal;font-family:Lato;-inkscape-font-specification:'Lato Heavy';stroke-width:5.04085112"
       id="path876"
       inkscape:connector-curvature="0" />
  </g>
</svg>
